<svg xmlns="http://www.w3.org/2000/svg" viewBox="0 0 39.69 13.23"><g fill="none" stroke="#fff"><circle cx="43" cy="35" r="29" stroke-width="6" transform="translate(.77 1.3) scale(.1518)"/><path d="M7.3 2.21v8.8m0-.45l5.16-8.35H2.14z"/></g><path fill="#fff" d="M14.43 8.94V4.22h.55v4.72zm4.18 0V6.65q0-.43-.2-.64-.19-.22-.6-.22-.56 0-.82.3-.26.3-.26 1v1.85h-.54V5.4h.44l.09.49h.02q.17-.26.46-.4.3-.15.67-.15.63 0 .96.3.32.32.32 1v2.3zm2.79-.37q.14 0 .27-.02l.21-.05v.41q-.09.04-.26.07-.17.03-.3.03-1.03 0-1.03-1.08V5.82h-.5v-.26l.5-.22.23-.76h.3v.82h1.03v.42h-1.02V7.9q0 .32.15.5.15.17.42.17zm2.8-3.23q.24 0 .43.04l-.08.5q-.22-.05-.39-.05-.43 0-.73.35-.3.34-.3.86v1.9h-.54V5.4h.44l.06.66h.03q.2-.35.47-.53.28-.2.61-.2zm3.26 3.6l-.1-.5h-.03q-.26.33-.53.45-.26.12-.65.12-.53 0-.83-.27-.3-.27-.3-.78 0-1.07 1.72-1.12l.6-.02V6.6q0-.41-.18-.61t-.57-.2q-.45 0-1 .27l-.17-.41q.26-.14.57-.22.31-.08.63-.08.63 0 .93.28.31.28.31.9v2.41zm-1.2-.37q.5 0 .78-.28.29-.27.29-.77V7.2l-.54.03q-.64.02-.92.2-.29.17-.29.54 0 .3.18.44.18.16.5.16zm5.13.37V6.65q0-.43-.2-.64-.2-.22-.62-.22-.55 0-.8.3-.27.3-.27 1v1.85h-.53V5.4h.43l.09.49h.03q.16-.26.46-.4.3-.15.66-.15.64 0 .96.3.32.32.32 1v2.3zm3.13.06q-.78 0-1.24-.47-.45-.48-.45-1.33 0-.85.42-1.36.42-.5 1.13-.5.67 0 1.06.44.38.43.38 1.15v.34h-2.44q.02.62.32.95.3.32.84.32.57 0 1.13-.24v.48q-.28.12-.54.17-.25.06-.6.06zm-.14-3.21q-.43 0-.69.28-.25.27-.3.76h1.86q0-.5-.23-.77-.22-.27-.64-.27zm3.5 2.78q.14 0 .27-.02l.21-.05v.41q-.08.04-.25.07-.17.03-.3.03-1.03 0-1.03-1.08V5.82h-.51v-.26l.5-.22.23-.76h.31v.82h1.03v.42H37.3V7.9q0 .32.15.5.16.17.42.17z"/></svg>
